<svg width="16" height="16" viewBox="0 0 16 16" fill="none" xmlns="http://www.w3.org/2000/svg">
<rect x="0.5" y="1.5" width="8" height="11" rx="0.5" fill="white"/>
<rect x="0.5" y="1.5" width="8" height="11" rx="0.5" stroke="#634689"/>
<path d="M2.247 10V4.114H3.291V6.787H3.318L5.415 4.114H6.576L4.767 6.409L6.882 10H5.73L4.137 7.228L3.291 8.281V10H2.247Z" fill="#4F4F4F"/>
<rect x="7.5" y="3.5" width="8" height="11" rx="0.5" fill="white"/>
<rect x="7.5" y="3.5" width="8" height="11" rx="0.5" stroke="#634689"/>
<path d="M10.953 8.868L10.746 9.588H12.249L12.042 8.868C11.946 8.556 11.853 8.235 11.763 7.905C11.679 7.575 11.595 7.248 11.511 6.924H11.475C11.391 7.254 11.307 7.584 11.223 7.914C11.139 8.238 11.049 8.556 10.953 8.868ZM8.982 12L10.899 6.114H12.123L14.04 12H12.942L12.483 10.407H10.503L10.044 12H8.982Z" fill="#4F4F4F"/>
</svg>
