<svg width="5" height="5" viewBox="0 0 5 5" fill="#78706A" xmlns="http://www.w3.org/2000/svg">
    <path d="M4.56649 0H2.16516C1.92398 0 1.72903 0.195021 1.72903 0.436288C1.72903 0.677119 1.92398 0.872575 2.16516 0.872575H3.51105L0.127895 4.25526C-0.0426316 4.42585 -0.0426316 4.70158 0.127895 4.87217C0.21294 4.95724 0.324589 5 0.436238 5C0.547887 5 0.659536 4.95724 0.744581 4.87217L4.12774 1.48992V2.83587C4.12774 3.0767 4.32269 3.27216 4.56387 3.27216C4.80505 3.27216 5 3.0767 5 2.83587V0.436288C5 0.215962 4.82642 0.00436288 4.56649 0Z" fill="#78706A"/>
</svg>
