<svg width="18" height="31" viewBox="0 0 18 31" fill="none" xmlns="http://www.w3.org/2000/svg">
<path fill-rule="evenodd" clip-rule="evenodd" d="M9.12586 0.144135C7.7972 0.144135 6.72076 1.22108 6.72076 2.54999C6.72076 3.8784 7.79771 4.95662 9.12586 4.95662C10.4545 4.95662 11.5332 3.87891 11.5332 2.54999C11.5332 1.22108 10.4545 0.144135 9.12586 0.144135ZM1.04408 15.9297C0.855543 16.5496 1.19261 17.2021 1.7972 17.3848C1.90446 17.4171 2.01325 17.4324 2.12026 17.4324C2.55771 17.4324 2.96968 17.1746 3.16561 16.7626L5.00739 10.7797C5.09682 10.4852 5.40815 10.3201 5.70191 10.4095C5.96688 10.4897 6.11745 10.7511 6.08077 11.0169C6.08746 11.0259 4.12409 17.4427 3.27283 20.2249C3.12033 20.7233 3.00353 21.105 2.94013 21.3124H5.93529V28.6454C5.93529 29.4016 6.54777 30.0151 7.30395 30.0151C8.06115 30.0151 8.67465 29.4021 8.67465 28.6454V28.6266V21.5303V21.3122H9.12739H9.57936V21.5303V28.6258V28.6444C9.57936 29.4008 10.1936 30.0146 10.9501 30.0146C11.7065 30.0146 12.3187 29.4016 12.3187 28.6444V21.3122H15.3141C14.8961 19.9473 12.1656 11.0268 12.1733 11.0164C12.1373 10.7504 12.2871 10.4897 12.5524 10.409C12.8469 10.3196 13.1572 10.4852 13.2464 10.7789L15.0884 16.7621C15.3333 17.2747 15.9113 17.5496 16.4573 17.3843C17.0609 17.2011 17.3987 16.5491 17.2087 15.9297C17.2087 15.9297 14.6538 7.84796 14.6245 7.78936C13.933 5.62804 12.1926 5.62425 10.585 5.62075L10.5618 5.6207H7.69096L7.66776 5.62075C6.06093 5.62425 4.32049 5.62804 3.62828 7.78936C3.59949 7.84719 1.04408 15.9297 1.04408 15.9297Z" fill="white"/>
</svg>
