<svg width="14" height="32" viewBox="0 0 14 32" fill="none" xmlns="http://www.w3.org/2000/svg">
<path fill-rule="evenodd" clip-rule="evenodd" d="M9.42189 3.39C9.42189 2.0525 8.33627 0.96875 6.99939 0.96875C5.66252 0.96875 4.57877 2.05313 4.57877 3.39C4.57877 4.72688 5.66252 5.81187 6.99939 5.81187C8.33564 5.81187 9.42189 4.7275 9.42189 3.39ZM13.3081 17.456V10.7066C13.3081 10.6616 13.3081 10.3648 13.3094 10.2698C13.3094 8.15352 11.0531 6.61039 8.96564 6.49414L7.46064 6.48414V6.47852L7.00064 6.48164L6.54064 6.47852V6.48414L5.03564 6.49414C2.94752 6.61102 0.691895 8.15352 0.691895 10.2698V10.706V17.4554C0.691895 17.9998 1.17627 18.4391 1.77564 18.4391C2.37502 18.4391 2.86064 17.9998 2.86064 17.4554V13.8079V12.6085V11.8616V11.861C2.86064 11.6066 3.06689 11.401 3.32064 11.401C3.56377 11.401 3.75752 11.591 3.77439 11.8298C3.77547 11.8346 3.77805 11.8389 3.78064 11.8431C3.78407 11.8488 3.78752 11.8545 3.78752 11.8616V13.9554V29.6535C3.78752 30.4148 4.40377 31.0323 5.16502 31.0323C5.92689 31.0323 6.54439 30.4154 6.54439 29.6535V29.6348V22.4929V19.0379V18.3748C6.54439 18.1248 6.74752 17.9198 7.00002 17.9198C7.25189 17.9204 7.45564 18.1248 7.45564 18.3748V19.0379V22.4929V29.6354V29.6541C7.45564 30.4154 8.07377 31.0329 8.83502 31.0329C9.59627 31.0329 10.2125 30.416 10.2125 29.6541V13.956V11.8623C10.2125 11.855 10.2159 11.8495 10.2193 11.8438C10.2218 11.8396 10.2243 11.8354 10.2256 11.8304C10.2425 11.5916 10.4363 11.4016 10.6794 11.4016C10.9338 11.4016 11.1394 11.6079 11.1394 11.8616V11.8623V12.6091V13.8085V17.456C11.1394 18.0004 11.625 18.4398 12.2244 18.4398C12.8231 18.4398 13.3081 18.0004 13.3081 17.456Z" fill="white"/>
</svg>
