<svg width="40" height="38" viewBox="0 0 40 38" fill="none" xmlns="http://www.w3.org/2000/svg">
<path d="M0 0H38C39.1046 0 40 0.895431 40 2V35C40 36.6569 38.6569 38 37 38H0V0Z" fill="#0067C5"/>
<path fill-rule="evenodd" clip-rule="evenodd" d="M17 7C21.9706 7 26 11.0294 26 16C26 18.1211 25.2662 20.0709 24.0386 21.6093L32 29.5714L30.5714 31L22.6093 23.0386C21.0709 24.2662 19.1211 25 17 25C12.0294 25 8 20.9706 8 16C8 11.0294 12.0294 7 17 7ZM17 9C13.134 9 10 12.134 10 16C10 19.866 13.134 23 17 23C20.866 23 24 19.866 24 16C24 12.134 20.866 9 17 9Z" fill="white"/>
</svg>
